<mxfile host="Electron" agent="Mozilla/5.0 (X11; Linux x86_64) AppleWebKit/537.36 (KHTML, like Gecko) draw.io/25.0.2 Chrome/128.0.6613.186 Electron/32.2.5 Safari/537.36" version="25.0.2">
  <diagram name="Page-1" id="4j-ZQkW-RBo1_ejIk8KT">
    <mxGraphModel dx="683" dy="399" grid="1" gridSize="10" guides="1" tooltips="1" connect="1" arrows="1" fold="1" page="1" pageScale="1" pageWidth="850" pageHeight="1100" math="0" shadow="0">
      <root>
        <mxCell id="0" />
        <mxCell id="1" parent="0" />
        <mxCell id="75t2SYrDXugpO9cETzD6-17" value="" style="edgeStyle=orthogonalEdgeStyle;rounded=0;orthogonalLoop=1;jettySize=auto;html=1;" edge="1" parent="1" source="75t2SYrDXugpO9cETzD6-1" target="75t2SYrDXugpO9cETzD6-15">
          <mxGeometry relative="1" as="geometry" />
        </mxCell>
        <mxCell id="75t2SYrDXugpO9cETzD6-1" value="Start" style="ellipse;whiteSpace=wrap;html=1;" vertex="1" parent="1">
          <mxGeometry x="380" y="20" width="75" height="40" as="geometry" />
        </mxCell>
        <mxCell id="75t2SYrDXugpO9cETzD6-14" value="" style="edgeStyle=orthogonalEdgeStyle;rounded=0;orthogonalLoop=1;jettySize=auto;html=1;" edge="1" parent="1" source="75t2SYrDXugpO9cETzD6-7" target="75t2SYrDXugpO9cETzD6-9">
          <mxGeometry relative="1" as="geometry" />
        </mxCell>
        <mxCell id="75t2SYrDXugpO9cETzD6-7" value="Show Found Configurations" style="rounded=0;whiteSpace=wrap;html=1;" vertex="1" parent="1">
          <mxGeometry x="357.5" y="290" width="120" height="60" as="geometry" />
        </mxCell>
        <mxCell id="75t2SYrDXugpO9cETzD6-9" value="END" style="shape=hexagon;perimeter=hexagonPerimeter2;whiteSpace=wrap;html=1;fixedSize=1;" vertex="1" parent="1">
          <mxGeometry x="378.75" y="400" width="77.5" height="30" as="geometry" />
        </mxCell>
        <mxCell id="75t2SYrDXugpO9cETzD6-18" value="" style="edgeStyle=orthogonalEdgeStyle;rounded=0;orthogonalLoop=1;jettySize=auto;html=1;" edge="1" parent="1" source="75t2SYrDXugpO9cETzD6-15" target="75t2SYrDXugpO9cETzD6-16">
          <mxGeometry relative="1" as="geometry" />
        </mxCell>
        <mxCell id="75t2SYrDXugpO9cETzD6-15" value="Prompt user for weights" style="rounded=0;whiteSpace=wrap;html=1;" vertex="1" parent="1">
          <mxGeometry x="366.25" y="100" width="102.5" height="50" as="geometry" />
        </mxCell>
        <mxCell id="75t2SYrDXugpO9cETzD6-19" value="" style="edgeStyle=orthogonalEdgeStyle;rounded=0;orthogonalLoop=1;jettySize=auto;html=1;" edge="1" parent="1" source="75t2SYrDXugpO9cETzD6-16" target="75t2SYrDXugpO9cETzD6-7">
          <mxGeometry relative="1" as="geometry" />
        </mxCell>
        <mxCell id="75t2SYrDXugpO9cETzD6-16" value="Call Start Search on Orchestrator with given weights" style="rounded=1;whiteSpace=wrap;html=1;" vertex="1" parent="1">
          <mxGeometry x="357.5" y="190" width="120" height="60" as="geometry" />
        </mxCell>
      </root>
    </mxGraphModel>
  </diagram>
</mxfile>
